<?xml version="1.0" encoding="UTF-8" standalone="no"?>
<!-- Created with Inkscape (http://www.inkscape.org/) -->

<svg
   xmlns:dc="http://purl.org/dc/elements/1.1/"
   xmlns:cc="http://creativecommons.org/ns#"
   xmlns:rdf="http://www.w3.org/1999/02/22-rdf-syntax-ns#"
   xmlns:svg="http://www.w3.org/2000/svg"
   xmlns="http://www.w3.org/2000/svg"
   xmlns:sodipodi="http://sodipodi.sourceforge.net/DTD/sodipodi-0.dtd"
   xmlns:inkscape="http://www.inkscape.org/namespaces/inkscape"
   width="200"
   height="200"
   viewBox="0 0 52.916666 52.916666"
   version="1.1"
   id="svg8"
   inkscape:version="0.92.4 (5da689c313, 2019-01-14)"
   sodipodi:docname="drawing.svg">
  <defs
     id="defs2">
    <inkscape:path-effect
       effect="bspline"
       id="path-effect3865"
       is_visible="true"
       weight="33.333333"
       steps="2"
       helper_size="0"
       apply_no_weight="true"
       apply_with_weight="true"
       only_selected="false" />
    <inkscape:path-effect
       effect="bspline"
       id="path-effect3861"
       is_visible="true"
       weight="33.333333"
       steps="2"
       helper_size="0"
       apply_no_weight="true"
       apply_with_weight="true"
       only_selected="false" />
  </defs>
  <sodipodi:namedview
     id="base"
     pagecolor="#ffffff"
     bordercolor="#666666"
     borderopacity="1.0"
     inkscape:pageopacity="0.0"
     inkscape:pageshadow="2"
     inkscape:zoom="1.4"
     inkscape:cx="142.51426"
     inkscape:cy="52.661375"
     inkscape:document-units="mm"
     inkscape:current-layer="layer1"
     showgrid="false"
     fit-margin-top="0"
     fit-margin-left="0"
     fit-margin-right="0"
     fit-margin-bottom="0"
     inkscape:snap-page="true"
     inkscape:snap-center="true"
     inkscape:lockguides="true"
     inkscape:snap-object-midpoints="true"
     inkscape:snap-midpoints="true"
     inkscape:window-width="1366"
     inkscape:window-height="705"
     inkscape:window-x="-8"
     inkscape:window-y="-8"
     inkscape:window-maximized="1"
     units="px" />
  <metadata
     id="metadata5">
    <rdf:RDF>
      <cc:Work
         rdf:about="">
        <dc:format>image/svg+xml</dc:format>
        <dc:type
           rdf:resource="http://purl.org/dc/dcmitype/StillImage" />
        <dc:title></dc:title>
      </cc:Work>
    </rdf:RDF>
  </metadata>
  <g
     inkscape:label="Layer 1"
     inkscape:groupmode="layer"
     id="layer1"
     transform="translate(-19.243404,-13.162436)">
    <path
       style="fill:#000000;stroke-width:0.069925"
       d="m 24.526928,13.162436 c -2.927101,0 -5.283524,2.358292 -5.283524,5.287716 v 7.93171 a 0.66044669,0.66097072 0 0 0 0.660475,0.660999 0.66044669,0.66097072 0 0 0 0.660475,-0.660999 v -6.609713 c 0,-2.929424 2.356422,-5.287716 5.283524,-5.287716 h 6.604472 a 0.66044669,0.66097072 0 0 0 0.660475,-0.660999 0.66044669,0.66097072 0 0 0 -0.660475,-0.660998 z m 34.343317,0 a 0.66044669,0.66097072 0 0 0 -0.660475,0.660998 0.66044669,0.66097072 0 0 0 0.660475,0.660999 h 6.604472 c 2.927102,0 5.283524,2.358292 5.283524,5.287716 v 6.609713 a 0.66044669,0.66097072 0 0 0 0.660475,0.660999 0.66044669,0.66097072 0 0 0 0.660475,-0.660999 v -7.93171 c 0,-2.929424 -2.356559,-5.287716 -5.283661,-5.287716 z M 19.903879,52.159719 a 0.66044669,0.66097072 0 0 0 -0.660475,0.660998 v 7.931575 c 0,2.929424 2.356423,5.287853 5.283524,5.287853 h 7.925422 a 0.66044669,0.66097072 0 0 0 0.660475,-0.660999 0.66044669,0.66097072 0 0 0 -0.660475,-0.660998 h -6.604472 c -2.927102,0 -5.283524,-2.358293 -5.283524,-5.287717 v -6.609714 a 0.66044669,0.66097072 0 0 0 -0.660475,-0.660998 z m 51.514837,0 a 0.66044669,0.66097072 0 0 0 -0.660475,0.660998 v 6.609714 c 0,2.929424 -2.356422,5.287717 -5.283524,5.287717 h -6.604472 a 0.66044669,0.66097072 0 0 0 -0.660475,0.660998 0.66044669,0.66097072 0 0 0 0.660475,0.660999 h 7.925285 c 2.927102,0 5.283661,-2.358429 5.283661,-5.287853 v -7.931575 a 0.66044669,0.66097072 0 0 0 -0.660475,-0.660998 z"
       id="rect3949"
       inkscape:connector-curvature="0" />
  </g>
</svg>
